<svg xmlns="http://www.w3.org/2000/svg" x="0px" y="0px"
width="64" height="64"
viewBox="0 0 172 172"
style=" fill:#000000;"><g fill="none" fill-rule="nonzero" stroke="none" stroke-width="1" stroke-linecap="butt" stroke-linejoin="miter" stroke-miterlimit="10" stroke-dasharray="" stroke-dashoffset="0" font-family="none" font-weight="none" font-size="none" text-anchor="none" style="mix-blend-mode: normal"><path d="M0,172v-172h172v172z" fill="none"></path><g><path d="M34.9375,79.28125v-71.21875v0c8.46562,11.825 22.0375,18.8125 36.55,18.8125h29.025c14.5125,0 28.08437,-6.9875 36.55,-18.8125v0v71.21875" fill="#666666"></path><path d="M94.33125,161.25h-16.6625c-36.0125,0 -61.8125,-34.66875 -51.46562,-69.20312l11.825,-34.80312c6.18125,-18.14062 23.24687,-30.36875 42.4625,-30.36875h11.01875c19.21563,0 36.28125,12.22812 42.4625,30.36875l11.825,34.80313c10.48125,34.53437 -15.45312,69.20313 -51.46562,69.20313z" fill="#333333"></path><path d="M145.93125,92.04688l-11.825,-34.80312c-6.31562,-18.14062 -23.24687,-30.23437 -42.4625,-30.36875c13.975,18.40938 22.575,44.34375 22.575,72.96563c0,22.97813 -5.50937,44.075 -14.91562,61.14062c33.45937,-2.95625 56.4375,-36.0125 46.62813,-68.93437z" fill="#666666"></path><path d="M94.33125,165.28125h-16.6625c-18.40938,0 -35.34063,-8.46562 -46.35938,-23.24687c-11.01875,-14.78125 -14.24375,-33.45937 -9.00312,-51.0625c0.67188,-2.15 2.82188,-3.35937 4.97187,-2.6875c2.15,0.67188 3.35938,2.82188 2.6875,4.97188c-4.56875,15.18437 -1.74687,31.175 7.79375,43.94063c9.54062,12.76563 24.05313,20.02188 39.90938,20.02188h16.79688c15.85625,0 30.36875,-7.25625 39.90937,-20.02188c9.54063,-12.76562 12.3625,-28.75625 7.79375,-43.94062c-0.67187,-2.15 0.5375,-4.43438 2.6875,-4.97188c2.15,-0.67187 4.43438,0.5375 4.97188,2.6875c5.24062,17.60313 2.01563,36.28125 -9.00313,51.0625c-11.15312,14.78125 -27.95,23.24687 -46.49375,23.24687zM137.0625,43c-2.28438,0 -4.03125,-1.74688 -4.03125,-4.03125v-20.425c-8.86875,7.92813 -20.425,12.3625 -32.51875,12.3625h-29.025c-12.09375,0 -23.65,-4.43437 -32.51875,-12.3625v20.425c0,2.28437 -1.74688,4.03125 -4.03125,4.03125c-2.28438,0 -4.03125,-1.74688 -4.03125,-4.03125v-30.90625c0,-1.74688 1.075,-3.35937 2.82188,-3.89687c1.6125,-0.5375 3.49375,0.13437 4.56875,1.47812c7.65937,10.75 20.15625,17.06562 33.325,17.06562h29.025c13.16875,0 25.66562,-6.45 33.325,-17.06562c1.075,-1.47813 2.82187,-2.01562 4.56875,-1.47813c1.6125,0.5375 2.82188,2.15 2.82188,3.89687v30.90625c-0.26875,2.28437 -2.01562,4.03125 -4.3,4.03125z" fill="#4c3c3c"></path><path d="M53.2125,132.89688c-1.88125,0 -3.49375,-1.34375 -3.89687,-3.225c-3.225,-14.78125 -12.3625,-27.27813 -25.12813,-34.13125c-2.01562,-1.075 -2.6875,-3.49375 -1.6125,-5.50937c1.075,-2.01562 3.49375,-2.6875 5.50937,-1.6125c14.78125,7.92812 25.39688,22.44062 29.025,39.50625c0.40312,2.15 -0.94063,4.3 -3.09062,4.8375c-0.26875,0.13438 -0.5375,0.13438 -0.80625,0.13438zM118.7875,133.03125c-0.26875,0 -0.5375,0 -0.80625,-0.13438c-2.15,-0.40312 -3.62813,-2.55312 -3.09063,-4.8375c3.7625,-17.2 14.24375,-31.57812 29.15937,-39.64062c2.01563,-1.075 4.43438,-0.26875 5.50938,1.6125c1.075,2.01563 0.26875,4.43438 -1.6125,5.50937c-12.76562,6.85312 -21.76875,19.35 -24.99375,34.26563c-0.5375,1.88125 -2.28437,3.225 -4.16562,3.225z" fill="#4c3c3c"></path><path d="M55.09375,45.6875c-11.13199,0 -20.15625,9.02426 -20.15625,20.15625c0,11.13199 9.02426,20.15625 20.15625,20.15625c11.13199,0 20.15625,-9.02426 20.15625,-20.15625c0,-11.13199 -9.02426,-20.15625 -20.15625,-20.15625z" fill="#666666"></path><path d="M55.09375,61.8125c-2.2264,0 -4.03125,1.80485 -4.03125,4.03125c0,2.2264 1.80485,4.03125 4.03125,4.03125c2.2264,0 4.03125,-1.80485 4.03125,-4.03125c0,-2.2264 -1.80485,-4.03125 -4.03125,-4.03125z" fill="#4c3c3c"></path><path d="M86,107.5c-2.2264,0 -4.03125,1.80485 -4.03125,4.03125c0,2.2264 1.80485,4.03125 4.03125,4.03125c2.2264,0 4.03125,-1.80485 4.03125,-4.03125c0,-2.2264 -1.80485,-4.03125 -4.03125,-4.03125zM72.5625,107.5c-2.2264,0 -4.03125,1.80485 -4.03125,4.03125c0,2.2264 1.80485,4.03125 4.03125,4.03125c2.2264,0 4.03125,-1.80485 4.03125,-4.03125c0,-2.2264 -1.80485,-4.03125 -4.03125,-4.03125zM99.4375,107.5c-2.2264,0 -4.03125,1.80485 -4.03125,4.03125c0,2.2264 1.80485,4.03125 4.03125,4.03125c2.2264,0 4.03125,-1.80485 4.03125,-4.03125c0,-2.2264 -1.80485,-4.03125 -4.03125,-4.03125zM92.71875,120.9375c-2.2264,0 -4.03125,1.80485 -4.03125,4.03125c0,2.2264 1.80485,4.03125 4.03125,4.03125c2.2264,0 4.03125,-1.80485 4.03125,-4.03125c0,-2.2264 -1.80485,-4.03125 -4.03125,-4.03125zM79.28125,120.9375c-2.2264,0 -4.03125,1.80485 -4.03125,4.03125c0,2.2264 1.80485,4.03125 4.03125,4.03125c2.2264,0 4.03125,-1.80485 4.03125,-4.03125c0,-2.2264 -1.80485,-4.03125 -4.03125,-4.03125z" fill="#ffffff"></path><path d="M116.90625,45.6875c-11.13199,0 -20.15625,9.02426 -20.15625,20.15625c0,11.13199 9.02426,20.15625 20.15625,20.15625c11.13199,0 20.15625,-9.02426 20.15625,-20.15625c0,-11.13199 -9.02426,-20.15625 -20.15625,-20.15625z" fill="#666666"></path><path d="M55.09375,90.03125c-13.30313,0 -24.1875,-10.88438 -24.1875,-24.1875c0,-13.30313 10.88437,-24.1875 24.1875,-24.1875c13.30312,0 24.1875,10.88437 24.1875,24.1875c0,13.30312 -10.88438,24.1875 -24.1875,24.1875zM55.09375,49.71875c-8.86875,0 -16.125,7.25625 -16.125,16.125c0,8.86875 7.25625,16.125 16.125,16.125c8.86875,0 16.125,-7.25625 16.125,-16.125c0,-8.86875 -7.25625,-16.125 -16.125,-16.125zM116.90625,61.8125c-2.2264,0 -4.03125,1.80485 -4.03125,4.03125c0,2.2264 1.80485,4.03125 4.03125,4.03125c2.2264,0 4.03125,-1.80485 4.03125,-4.03125c0,-2.2264 -1.80485,-4.03125 -4.03125,-4.03125z" fill="#4c3c3c"></path><path d="M116.90625,90.03125c-13.30313,0 -24.1875,-10.88438 -24.1875,-24.1875c0,-13.30313 10.88437,-24.1875 24.1875,-24.1875c13.30312,0 24.1875,10.88437 24.1875,24.1875c0,13.30312 -10.88438,24.1875 -24.1875,24.1875zM116.90625,49.71875c-8.86875,0 -16.125,7.25625 -16.125,16.125c0,8.86875 7.25625,16.125 16.125,16.125c8.86875,0 16.125,-7.25625 16.125,-16.125c0,-8.86875 -7.25625,-16.125 -16.125,-16.125z" fill="#4c3c3c"></path><g fill="#4c3c3c"><path d="M86,96.75c-1.74688,0 -3.225,-1.075 -3.7625,-2.6875l-12.09375,-34.13125c-0.80625,-2.15 0.40313,-4.43437 2.41875,-5.10625c2.15,-0.80625 4.43438,0.40312 5.10625,2.41875l8.33125,23.38125l8.33125,-23.38125c0.80625,-2.15 3.09063,-3.225 5.10625,-2.41875c2.15,0.80625 3.225,3.09062 2.41875,5.10625l-12.09375,34.13125c-0.5375,1.6125 -2.01562,2.6875 -3.7625,2.6875z"></path></g><g fill="#4c3c3c"><path d="M55.09375,167.96875c-2.28438,0 -4.03125,-1.74687 -4.03125,-4.03125v-2.6875c0,-2.28438 1.74687,-4.03125 4.03125,-4.03125c2.28438,0 4.03125,1.74687 4.03125,4.03125v2.6875c0,2.28438 -1.74687,4.03125 -4.03125,4.03125z"></path></g><g fill="#4c3c3c"><path d="M108.84375,167.96875c-2.28437,0 -4.03125,-1.74687 -4.03125,-4.03125v-2.6875c0,-2.28438 1.74688,-4.03125 4.03125,-4.03125c2.28437,0 4.03125,1.74687 4.03125,4.03125v2.6875c0,2.28438 -1.74688,4.03125 -4.03125,4.03125z"></path></g></g></g></svg>